<svg width="20" height="17" viewBox="0 0 20 17" fill="none" xmlns="http://www.w3.org/2000/svg">
<path fill-rule="evenodd" clip-rule="evenodd" d="M0.399414 8.32015C0.399414 8.04736 0.507781 7.78574 0.700676 7.59284C0.89357 7.39995 1.15519 7.29158 1.42799 7.29158H16.0172L10.3148 1.86073C10.2129 1.76824 10.1305 1.65623 10.0727 1.53133C10.0148 1.40644 9.98256 1.27119 9.97791 1.13362C9.97326 0.996041 9.99628 0.858931 10.0456 0.730412C10.0949 0.601893 10.1695 0.48458 10.265 0.385424C10.3605 0.286268 10.4749 0.207287 10.6015 0.153161C10.728 0.0990353 10.8642 0.0708652 11.0018 0.0703206C11.1395 0.0697759 11.2758 0.0968675 11.4028 0.14999C11.5298 0.203113 11.6449 0.281187 11.7411 0.379584L19.284 7.57958C19.3835 7.67553 19.4627 7.79057 19.5168 7.91781C19.5709 8.04505 19.5988 8.18189 19.5988 8.32015C19.5988 8.45842 19.5709 8.59526 19.5168 8.7225C19.4627 8.84974 19.3835 8.96478 19.284 9.06073L11.7411 16.2607C11.6449 16.3591 11.5298 16.4372 11.4028 16.4903C11.2758 16.5434 11.1395 16.5705 11.0018 16.57C10.8642 16.5694 10.728 16.5413 10.6015 16.4871C10.4749 16.433 10.3605 16.354 10.265 16.2549C10.1695 16.1557 10.0949 16.0384 10.0456 15.9099C9.99628 15.7814 9.97326 15.6443 9.97791 15.5067C9.98256 15.3691 10.0148 15.2339 10.0727 15.109C10.1305 14.9841 10.2129 14.8721 10.3148 14.7796L16.0172 9.34873H1.42799C1.15519 9.34873 0.89357 9.24036 0.700676 9.04746C0.507781 8.85457 0.399414 8.59295 0.399414 8.32015Z" fill="#101828"/>
</svg>
