<svg width="21" height="24" viewBox="0 0 21 24" fill="none" xmlns="http://www.w3.org/2000/svg">
<path d="M19.6667 10C19.6667 17 10.6667 23 10.6667 23C10.6667 23 1.66669 17 1.66669 10C1.66669 7.61305 2.6149 5.32387 4.30273 3.63604C5.99055 1.94821 8.27974 1 10.6667 1C13.0536 1 15.3428 1.94821 17.0306 3.63604C18.7185 5.32387 19.6667 7.61305 19.6667 10Z" stroke="#CA9A04" stroke-width="2" stroke-linecap="round" stroke-linejoin="round"/>
<path d="M10.6667 13C12.3235 13 13.6667 11.6569 13.6667 10C13.6667 8.34315 12.3235 7 10.6667 7C9.00983 7 7.66669 8.34315 7.66669 10C7.66669 11.6569 9.00983 13 10.6667 13Z" stroke="#CA9A04" stroke-width="2" stroke-linecap="round" stroke-linejoin="round"/>
</svg>
